<svg xmlns="http://www.w3.org/2000/svg" xmlns:xlink="http://www.w3.org/1999/xlink" width="1200" zoomAndPan="magnify" viewBox="0 0 900 359.999987" height="480" preserveAspectRatio="xMidYMid meet" version="1.2"><defs><clipPath id="d1f920b78c"><path d="M 716 141 L 759 141 L 759 187 L 716 187 Z M 716 141 "/></clipPath><clipPath id="cc1cd1574a"><path d="M 718.046875 140.628906 L 759.347656 159.207031 L 742.824219 195.9375 L 701.527344 177.359375 Z M 718.046875 140.628906 "/></clipPath><clipPath id="778e609688"><path d="M 724.753906 186.269531 L 757.320312 162.582031 C 758.074219 162.03125 758.476562 161.125 758.382812 160.199219 C 758.285156 159.273438 757.703125 158.46875 756.855469 158.085938 L 720.476562 141.722656 C 719.625 141.339844 718.636719 141.4375 717.882812 141.980469 C 717.125 142.523438 716.714844 143.429688 716.804688 144.355469 L 720.683594 184.4375 C 720.769531 185.359375 721.34375 186.160156 722.1875 186.535156 C 723.027344 186.914062 724.007812 186.8125 724.753906 186.269531 Z M 724.753906 186.269531 "/></clipPath><clipPath id="08a94b4e65"><path d="M 702.8125 76.699219 L 795.523438 76.699219 L 795.523438 169.410156 L 702.8125 169.410156 Z M 702.8125 76.699219 "/></clipPath><clipPath id="9df923dd58"><path d="M 749.167969 76.699219 C 723.566406 76.699219 702.8125 97.453125 702.8125 123.054688 C 702.8125 148.65625 723.566406 169.410156 749.167969 169.410156 C 774.769531 169.410156 795.523438 148.65625 795.523438 123.054688 C 795.523438 97.453125 774.769531 76.699219 749.167969 76.699219 Z M 749.167969 76.699219 "/></clipPath><clipPath id="d44d2ffac3"><path d="M 724 97.886719 L 774.335938 97.886719 L 774.335938 148.21875 L 724 148.21875 Z M 724 97.886719 "/></clipPath><clipPath id="b3f0b5e27b"><path d="M 749.167969 97.886719 C 735.269531 97.886719 724 109.15625 724 123.054688 C 724 136.953125 735.269531 148.21875 749.167969 148.21875 C 763.066406 148.21875 774.335938 136.953125 774.335938 123.054688 C 774.335938 109.15625 763.066406 97.886719 749.167969 97.886719 Z M 749.167969 97.886719 "/></clipPath><clipPath id="c939fdc71d"><path d="M 192 143 L 236 143 L 236 189 L 192 189 Z M 192 143 "/></clipPath><clipPath id="4cd2f52db0"><path d="M 192.070312 158.09375 L 234.839844 143.210938 L 248.074219 181.25 L 205.304688 196.128906 Z M 192.070312 158.09375 "/></clipPath><clipPath id="62084867fa"><path d="M 228.304688 186.644531 L 235.683594 147.054688 C 235.855469 146.140625 235.523438 145.203125 234.820312 144.597656 C 234.113281 143.988281 233.136719 143.804688 232.257812 144.109375 L 194.582031 157.21875 C 193.703125 157.523438 193.054688 158.277344 192.875 159.191406 C 192.699219 160.105469 193.023438 161.042969 193.726562 161.65625 L 224.085938 188.113281 C 224.78125 188.71875 225.75 188.90625 226.621094 188.601562 C 227.492188 188.300781 228.132812 187.550781 228.304688 186.644531 Z M 228.304688 186.644531 "/></clipPath><clipPath id="a6dfd3b101"><path d="M 165 82 L 250 82 L 250 168 L 165 168 Z M 165 82 "/></clipPath><clipPath id="6e17ebb75b"><path d="M 146.605469 123.046875 L 208.214844 64.777344 L 266.238281 126.125 L 204.628906 184.394531 Z M 146.605469 123.046875 "/></clipPath><clipPath id="b7f88bfe1c"><path d="M 182.863281 92.503906 C 187.683594 93.367188 192.492188 90.90625 194.609375 86.484375 L 194.617188 86.46875 C 195.457031 84.714844 197.082031 83.464844 198.992188 83.097656 C 200.898438 82.730469 202.871094 83.289062 204.304688 84.605469 L 204.351562 84.648438 C 207.941406 87.945312 213.273438 88.480469 217.445312 85.953125 C 219.101562 84.953125 221.136719 84.789062 222.929688 85.519531 C 224.726562 86.246094 226.070312 87.78125 226.558594 89.65625 L 226.578125 89.726562 C 227.8125 94.453125 232.03125 97.785156 236.914062 97.894531 C 238.859375 97.941406 240.667969 98.898438 241.796875 100.480469 C 242.925781 102.066406 243.242188 104.089844 242.648438 105.941406 L 242.632812 105.988281 C 241.144531 110.644531 242.886719 115.726562 246.917969 118.488281 L 246.941406 118.503906 C 248.535156 119.59375 249.515625 121.375 249.59375 123.304688 C 249.667969 125.234375 248.824219 127.082031 247.320312 128.292969 C 243.535156 131.34375 242.230469 136.53125 244.125 141.003906 L 244.175781 141.121094 C 244.933594 142.910156 244.800781 144.953125 243.824219 146.628906 C 242.847656 148.308594 241.136719 149.425781 239.207031 149.648438 C 234.355469 150.210938 230.457031 153.898438 229.628906 158.707031 C 229.296875 160.621094 228.085938 162.269531 226.355469 163.152344 C 224.625 164.035156 222.582031 164.050781 220.839844 163.195312 L 220.722656 163.140625 C 216.359375 161 211.109375 162.011719 207.855469 165.621094 C 206.5625 167.054688 204.667969 167.792969 202.746094 167.613281 C 200.824219 167.429688 199.101562 166.351562 198.101562 164.699219 L 198.085938 164.675781 C 195.550781 160.496094 190.574219 158.472656 185.84375 159.703125 L 185.796875 159.714844 C 183.914062 160.203125 181.910156 159.773438 180.390625 158.558594 C 178.875 157.34375 178.019531 155.484375 178.082031 153.539062 C 178.246094 148.660156 175.148438 144.261719 170.5 142.765625 L 170.429688 142.742188 C 168.585938 142.152344 167.128906 140.722656 166.503906 138.890625 C 165.875 137.054688 166.148438 135.035156 167.242188 133.4375 C 169.996094 129.414062 169.761719 124.054688 166.667969 120.289062 L 166.625 120.242188 C 165.390625 118.738281 164.941406 116.738281 165.417969 114.851562 C 165.890625 112.964844 167.230469 111.414062 169.027344 110.671875 L 169.042969 110.667969 C 173.574219 108.796875 176.300781 104.136719 175.707031 99.269531 C 175.46875 97.34375 176.164062 95.414062 177.574219 94.082031 C 178.988281 92.746094 180.949219 92.160156 182.863281 92.503906 Z M 182.863281 92.503906 "/></clipPath><clipPath id="3a89bad8d2"><path d="M 188 105 L 226 105 L 226 143 L 188 143 Z M 188 105 "/></clipPath><clipPath id="7f00a9ccf5"><path d="M 184.039062 115.445312 L 225.417969 103.625 L 234.667969 136.011719 L 193.289062 147.828125 Z M 184.039062 115.445312 "/></clipPath><clipPath id="dba304a1d6"><path d="M 184.039062 115.445312 L 225.417969 103.625 L 234.667969 136.011719 L 193.289062 147.828125 Z M 184.039062 115.445312 "/></clipPath></defs><g id="02906a1ff0"><g style="fill:#ffffff;fill-opacity:1;"><g transform="translate(59.228423, 259.936222)"><path style="stroke:none" d="M 156.058594 -19.507812 L 153.730469 -50.109375 C 151.582031 -79.101562 136.191406 -87.691406 120.800781 -87.691406 C 108.988281 -87.691406 99.144531 -82.324219 94.3125 -73.019531 C 88.050781 -82.683594 77.3125 -87.691406 64.964844 -87.691406 C 54.761719 -87.691406 46.351562 -83.398438 41.160156 -76.238281 L 41.160156 -82.683594 C 41.160156 -86.261719 38.835938 -89.125 34.359375 -86.976562 L 7.515625 -74.628906 C 5.011719 -73.375 3.222656 -72.300781 3.222656 -70.152344 L 3.222656 -69.617188 C 3.222656 -64.425781 12.707031 -63.175781 12.707031 -54.761719 L 12.707031 -19.507812 C 12.707031 -11.273438 4.832031 -8.949219 4.832031 -3.9375 L 4.832031 -3.222656 C 4.832031 -1.074219 6.441406 0.179688 9.128906 0.179688 L 47.785156 0.179688 C 50.46875 0.179688 52.078125 -1.074219 52.078125 -3.222656 L 52.078125 -3.9375 C 52.078125 -8.949219 44.203125 -11.273438 44.203125 -19.507812 L 44.203125 -58.878906 C 44.203125 -68.542969 47.960938 -75.882812 56.195312 -75.882812 C 63.710938 -75.882812 68.363281 -68.722656 68.363281 -53.511719 L 68.363281 -19.507812 C 68.363281 -11.273438 62.101562 -8.949219 62.101562 -3.9375 L 62.101562 -3.222656 C 62.101562 -1.074219 63.710938 0.179688 66.394531 0.179688 L 102.011719 0.179688 C 104.515625 0.179688 106.304688 -1.074219 106.304688 -3.222656 L 106.304688 -3.9375 C 106.304688 -8.949219 99.863281 -11.273438 99.863281 -19.507812 L 99.863281 -51.363281 C 99.863281 -54.046875 99.683594 -56.375 99.324219 -58.878906 C 99.324219 -68.722656 103.082031 -75.882812 110.421875 -75.882812 C 118.117188 -75.882812 121.875 -69.257812 122.769531 -51.183594 L 124.558594 -19.507812 C 125.097656 -11.273438 118.117188 -8.949219 118.117188 -3.9375 L 118.117188 -3.222656 C 118.117188 -1.074219 119.90625 0.179688 122.410156 0.179688 L 158.203125 0.179688 C 160.710938 0.179688 162.5 -1.074219 162.5 -3.222656 L 162.5 -3.9375 C 162.5 -8.949219 156.59375 -11.273438 156.058594 -19.507812 Z M 156.058594 -19.507812 "/></g></g><g style="fill:#ffffff;fill-opacity:1;"><g transform="translate(223.869869, 259.936222)"><path style="stroke:none" d="M 77.851562 -28.277344 C 74.628906 -23.980469 67.648438 -20.402344 59.953125 -20.402344 C 51.183594 -20.402344 44.203125 -24.695312 39.550781 -32.035156 L 75.164062 -52.078125 C 79.28125 -54.226562 82.144531 -57.804688 82.144531 -63.175781 C 82.144531 -74.449219 71.40625 -87.691406 47.960938 -87.691406 C 24.519531 -87.691406 3.9375 -69.976562 3.9375 -43.488281 C 3.9375 -16.285156 22.191406 1.789062 48.140625 1.789062 C 71.585938 1.789062 84.113281 -15.929688 84.472656 -25.769531 C 84.648438 -29.707031 80.355469 -30.78125 77.851562 -28.277344 Z M 44.742188 -78.921875 C 53.867188 -78.921875 56.730469 -66.21875 56.730469 -60.488281 C 56.730469 -56.730469 54.941406 -53.332031 52.078125 -51.363281 L 35.433594 -41.339844 C 33.644531 -46.710938 32.75 -53.152344 32.75 -60.132812 C 32.75 -70.511719 37.402344 -78.921875 44.742188 -78.921875 Z M 44.742188 -78.921875 "/></g></g><g style="fill:#ffffff;fill-opacity:1;"><g transform="translate(311.380363, 259.936222)"><path style="stroke:none" d="M 77.851562 -28.277344 C 74.628906 -23.980469 67.648438 -20.402344 59.953125 -20.402344 C 51.183594 -20.402344 44.203125 -24.695312 39.550781 -32.035156 L 75.164062 -52.078125 C 79.28125 -54.226562 82.144531 -57.804688 82.144531 -63.175781 C 82.144531 -74.449219 71.40625 -87.691406 47.960938 -87.691406 C 24.519531 -87.691406 3.9375 -69.976562 3.9375 -43.488281 C 3.9375 -16.285156 22.191406 1.789062 48.140625 1.789062 C 71.585938 1.789062 84.113281 -15.929688 84.472656 -25.769531 C 84.648438 -29.707031 80.355469 -30.78125 77.851562 -28.277344 Z M 44.742188 -78.921875 C 53.867188 -78.921875 56.730469 -66.21875 56.730469 -60.488281 C 56.730469 -56.730469 54.941406 -53.332031 52.078125 -51.363281 L 35.433594 -41.339844 C 33.644531 -46.710938 32.75 -53.152344 32.75 -60.132812 C 32.75 -70.511719 37.402344 -78.921875 44.742188 -78.921875 Z M 44.742188 -78.921875 "/></g></g><g style="fill:#ffffff;fill-opacity:1;"><g transform="translate(398.890857, 259.936222)"><path style="stroke:none" d="M 41.699219 1.789062 C 61.207031 1.789062 71.40625 -12.707031 71.40625 -26.488281 C 71.40625 -29.886719 67.113281 -30.960938 64.605469 -27.738281 C 62.636719 -24.519531 59.773438 -21.117188 52.792969 -21.117188 C 48.320312 -21.117188 44.742188 -24.695312 44.742188 -30.78125 L 44.742188 -73.734375 L 63.175781 -73.734375 C 65.5 -73.734375 67.289062 -75.523438 67.289062 -77.851562 L 67.289062 -81.785156 C 67.289062 -84.113281 65.5 -85.902344 63.175781 -85.902344 L 44.742188 -85.902344 L 44.742188 -103.976562 C 44.742188 -106.84375 42.773438 -108.632812 39.910156 -108.632812 L 35.792969 -108.632812 C 33.464844 -108.632812 31.496094 -106.84375 30.960938 -103.976562 C 28.632812 -93.0625 20.042969 -85.902344 9.128906 -85.902344 L 5.726562 -85.902344 C 3.222656 -85.902344 1.609375 -84.292969 1.609375 -81.785156 L 1.609375 -77.851562 C 1.609375 -75.523438 3.398438 -73.734375 5.726562 -73.734375 L 12.527344 -73.734375 L 12.527344 -31.320312 C 12.527344 -9.664062 23.980469 1.789062 41.699219 1.789062 Z M 41.699219 1.789062 "/></g></g><g style="fill:#ffffff;fill-opacity:1;"><g transform="translate(471.010953, 259.936222)"><path style="stroke:none" d="M 156.058594 -19.507812 L 153.730469 -50.109375 C 151.582031 -79.101562 136.191406 -87.691406 120.800781 -87.691406 C 108.988281 -87.691406 99.144531 -82.324219 94.3125 -73.019531 C 88.050781 -82.683594 77.3125 -87.691406 64.964844 -87.691406 C 54.761719 -87.691406 46.351562 -83.398438 41.160156 -76.238281 L 41.160156 -82.683594 C 41.160156 -86.261719 38.835938 -89.125 34.359375 -86.976562 L 7.515625 -74.628906 C 5.011719 -73.375 3.222656 -72.300781 3.222656 -70.152344 L 3.222656 -69.617188 C 3.222656 -64.425781 12.707031 -63.175781 12.707031 -54.761719 L 12.707031 -19.507812 C 12.707031 -11.273438 4.832031 -8.949219 4.832031 -3.9375 L 4.832031 -3.222656 C 4.832031 -1.074219 6.441406 0.179688 9.128906 0.179688 L 47.785156 0.179688 C 50.46875 0.179688 52.078125 -1.074219 52.078125 -3.222656 L 52.078125 -3.9375 C 52.078125 -8.949219 44.203125 -11.273438 44.203125 -19.507812 L 44.203125 -58.878906 C 44.203125 -68.542969 47.960938 -75.882812 56.195312 -75.882812 C 63.710938 -75.882812 68.363281 -68.722656 68.363281 -53.511719 L 68.363281 -19.507812 C 68.363281 -11.273438 62.101562 -8.949219 62.101562 -3.9375 L 62.101562 -3.222656 C 62.101562 -1.074219 63.710938 0.179688 66.394531 0.179688 L 102.011719 0.179688 C 104.515625 0.179688 106.304688 -1.074219 106.304688 -3.222656 L 106.304688 -3.9375 C 106.304688 -8.949219 99.863281 -11.273438 99.863281 -19.507812 L 99.863281 -51.363281 C 99.863281 -54.046875 99.683594 -56.375 99.324219 -58.878906 C 99.324219 -68.722656 103.082031 -75.882812 110.421875 -75.882812 C 118.117188 -75.882812 121.875 -69.257812 122.769531 -51.183594 L 124.558594 -19.507812 C 125.097656 -11.273438 118.117188 -8.949219 118.117188 -3.9375 L 118.117188 -3.222656 C 118.117188 -1.074219 119.90625 0.179688 122.410156 0.179688 L 158.203125 0.179688 C 160.710938 0.179688 162.5 -1.074219 162.5 -3.222656 L 162.5 -3.9375 C 162.5 -8.949219 156.59375 -11.273438 156.058594 -19.507812 Z M 156.058594 -19.507812 "/></g></g><g style="fill:#ffffff;fill-opacity:1;"><g transform="translate(635.652399, 259.936222)"><path style="stroke:none" d="M 89.480469 -19.507812 L 85.546875 -51.542969 C 82.683594 -73.734375 66.039062 -87.691406 42.058594 -87.691406 C 23.800781 -87.691406 6.265625 -81.429688 6.265625 -66.753906 C 6.265625 -59.773438 11.273438 -55.121094 18.792969 -55.121094 C 34.71875 -55.121094 29.707031 -79.101562 42.058594 -79.101562 C 51.363281 -79.101562 52.617188 -69.976562 54.761719 -48.855469 L 54.761719 -48.320312 C 50.289062 -51.003906 44.203125 -52.792969 36.6875 -52.792969 C 19.6875 -52.792969 4.472656 -43.488281 4.472656 -25.414062 C 4.472656 -6.980469 19.148438 1.789062 38.296875 1.789062 C 50.109375 1.789062 57.269531 -2.328125 61.027344 -7.515625 C 62.457031 -1.074219 67.648438 1.074219 78.386719 1.074219 C 88.230469 1.074219 98.609375 -0.179688 98.609375 -4.832031 C 98.609375 -9.84375 91.09375 -6.800781 89.480469 -19.507812 Z M 48.140625 -7.335938 C 40.804688 -7.335938 36.507812 -18.433594 36.507812 -31.140625 C 36.507812 -38.476562 40.265625 -43.308594 45.636719 -43.308594 C 50.824219 -43.308594 55.480469 -39.191406 56.730469 -28.457031 L 57.449219 -20.222656 C 57.449219 -14.136719 54.046875 -7.335938 48.140625 -7.335938 Z M 48.140625 -7.335938 "/></g></g><g style="fill:#ffffff;fill-opacity:1;"><g transform="translate(734.258283, 259.936222)"><path style="stroke:none" d="M 60.132812 -87.691406 C 49.929688 -87.691406 41.699219 -84.113281 37.226562 -77.851562 L 37.226562 -83.039062 C 37.226562 -86.617188 35.078125 -89.125 29.707031 -86.617188 L 6.085938 -74.984375 C 3.578125 -73.554688 1.96875 -71.945312 1.96875 -69.796875 L 1.96875 -68.902344 C 1.96875 -63.710938 10.558594 -62.816406 10.558594 -55.121094 L 10.558594 18.253906 C 10.558594 26.488281 3.398438 28.632812 3.398438 33.644531 L 3.398438 34.359375 C 3.398438 36.507812 5.191406 37.761719 7.695312 37.761719 L 45.636719 37.761719 C 48.140625 37.761719 49.929688 36.507812 49.929688 34.359375 L 49.929688 33.644531 C 49.929688 28.632812 41.878906 26.488281 41.878906 18.253906 L 41.878906 -3.398438 C 46.710938 0 52.617188 1.789062 60.132812 1.789062 C 82.324219 1.789062 102.367188 -16.105469 102.367188 -44.382812 C 102.367188 -73.554688 80.355469 -87.691406 60.132812 -87.691406 Z M 57.269531 -6.980469 C 49.394531 -6.980469 41.878906 -17.179688 41.878906 -32.394531 L 41.878906 -64.785156 C 41.878906 -73.195312 46.171875 -78.921875 52.617188 -78.921875 C 65.679688 -78.921875 70.871094 -48.855469 70.871094 -29.527344 C 70.871094 -14.855469 66.394531 -6.980469 57.269531 -6.980469 Z M 57.269531 -6.980469 "/></g></g><g clip-rule="nonzero" clip-path="url(#d1f920b78c)"><g clip-rule="nonzero" clip-path="url(#cc1cd1574a)"><g clip-rule="nonzero" clip-path="url(#778e609688)"><path style=" stroke:none;fill-rule:nonzero;fill:#ffffff;fill-opacity:1;" d="M 716.371094 139.875 L 761.023438 159.960938 L 743.472656 198.976562 L 698.820312 178.890625 Z M 716.371094 139.875 "/></g></g></g><g clip-rule="nonzero" clip-path="url(#08a94b4e65)"><g clip-rule="nonzero" clip-path="url(#9df923dd58)"><path style=" stroke:none;fill-rule:nonzero;fill:#ffffff;fill-opacity:1;" d="M 702.8125 76.699219 L 795.523438 76.699219 L 795.523438 169.410156 L 702.8125 169.410156 Z M 702.8125 76.699219 "/></g></g><g clip-rule="nonzero" clip-path="url(#d44d2ffac3)"><g clip-rule="nonzero" clip-path="url(#b3f0b5e27b)"><path style=" stroke:none;fill-rule:nonzero;fill:#00633f;fill-opacity:1;" d="M 724 97.886719 L 774.335938 97.886719 L 774.335938 148.21875 L 724 148.21875 Z M 724 97.886719 "/></g></g><g clip-rule="nonzero" clip-path="url(#c939fdc71d)"><g clip-rule="nonzero" clip-path="url(#4cd2f52db0)"><g clip-rule="nonzero" clip-path="url(#62084867fa)"><path style=" stroke:none;fill-rule:nonzero;fill:#ffffff;fill-opacity:1;" d="M 190.332031 158.699219 L 236.574219 142.609375 L 250.632812 183.011719 L 204.390625 199.101562 Z M 190.332031 158.699219 "/></g></g></g><g clip-rule="nonzero" clip-path="url(#a6dfd3b101)"><g clip-rule="nonzero" clip-path="url(#6e17ebb75b)"><g clip-rule="nonzero" clip-path="url(#b7f88bfe1c)"><path style=" stroke:none;fill-rule:nonzero;fill:#ffffff;fill-opacity:1;" d="M 141.019531 122.890625 L 208.371094 59.1875 L 271.582031 126.019531 L 204.226562 189.722656 Z M 141.019531 122.890625 "/></g></g></g><g clip-rule="nonzero" clip-path="url(#3a89bad8d2)"><g clip-rule="nonzero" clip-path="url(#7f00a9ccf5)"><g clip-rule="nonzero" clip-path="url(#dba304a1d6)"><path style=" stroke:none;fill-rule:nonzero;fill:#00633f;fill-opacity:1;" d="M 223.386719 105.460938 L 223.082031 105.339844 C 222.070312 104.914062 220.980469 104.917969 220.058594 105.28125 C 219.074219 105.667969 218.285156 106.371094 217.847656 107.347656 L 212.191406 119.820312 L 208.882812 127.355469 L 206.460938 132.863281 L 203.167969 130.898438 L 201.324219 129.824219 L 194.847656 126.039062 C 193.90625 125.488281 192.851562 125.378906 191.824219 125.605469 C 190.859375 125.8125 189.964844 126.511719 189.4375 127.414062 L 189.257812 127.738281 C 188.117188 129.601562 188.789062 132.070312 190.640625 133.179688 L 197.042969 136.953125 L 198.90625 138.09375 L 206.292969 142.4375 C 207.144531 142.910156 208.15625 143.097656 209.015625 142.886719 C 209.078125 142.867188 209.078125 142.867188 209.109375 142.859375 C 209.175781 142.84375 209.207031 142.832031 209.300781 142.804688 C 209.300781 142.804688 209.300781 142.804688 209.363281 142.789062 C 209.519531 142.742188 209.648438 142.707031 209.835938 142.652344 C 210.820312 142.269531 211.609375 141.566406 212.046875 140.585938 L 217.640625 128.132812 L 219.808594 123.175781 L 225.402344 110.722656 C 226.269531 108.734375 225.394531 106.386719 223.386719 105.460938 Z M 223.386719 105.460938 "/></g></g></g></g></svg>